# xmcd
#
# Track frame offsets: 
#        150
#        36157
#        56177
#        81871
#        98868
#        123322
#
# Disc length: 2291 seconds
#
# Revision: 0
# Processed by: cddbd v1.5.2PL0 Copyright (c) Steve Scherf et al.
# Submitted via: ExactAudioCopy v0.99pb4
#
DISCID=4b08f106
DTITLE=Blues Pilz - Eyes Don`t Lie
DYEAR=1900
DGENRE=Blues
TTITLE0=eyes don`t lie
TTITLE1=crying blues
TTITLE2=stoned
TTITLE3=mexico city blues
TTITLE4=woman
TTITLE5=death rumor
EXTD=
EXTT0=
EXTT1=
EXTT2=
EXTT3=
EXTT4=
EXTT5=
PLAYORDER=
